# xmcd
#
# Track frame offsets:
#	150
#	15627
#	28470
#	45282
#	58620
#	71260
#	86330
#	102070
#	117532
#	131460
#
# Disc length: 1925 seconds
#
# Revision: 2
# Processed by: cddbd v1.5.2PL0 Copyright (c) Steve Scherf et al.
# Submitted via: audiograbber 1.83.01
#
DISCID=7a07830a
DTITLE=Waylon Jennings - Too Dumb For New York City Too Ugly For L.A.
DYEAR=1992
DGENRE=Country
TTITLE0=Just Talkin'
TTITLE1=Silent Partners
TTITLE2=Didn't We Shine
TTITLE3=Too Dumb For New York City
TTITLE4=Armed and Dangerous
TTITLE5=Heartaches Older Than You
TTITLE6=Hank Williams Syndrome
TTITLE7=A Lot Of Good
TTITLE8=I've Got My Faults
TTITLE9=Smokey On Your Front Door
EXTD=
EXTT0=
EXTT1=
EXTT2=
EXTT3=
EXTT4=
EXTT5=
EXTT6=
EXTT7=
EXTT8=
EXTT9=
PLAYORDER=
